<svg width="256" height="256" viewBox="0 0 256 256" fill="none" xmlns="http://www.w3.org/2000/svg">
<path fill-rule="evenodd" clip-rule="evenodd" d="M0 12.8C0 5.73076 5.73075 0 12.8 0H51.2C57.5177 0 62.8905 4.60942 63.8511 10.8537L66.1198 25.6H243.2C247.216 25.6 251 27.4853 253.419 30.6919C255.837 33.8985 256.611 38.0545 255.507 41.9164L229.907 131.516C228.337 137.012 223.315 140.8 217.6 140.8H83.8429L87.7813 166.4H230.4C237.469 166.4 243.2 172.131 243.2 179.2C243.2 186.269 237.469 192 230.4 192H76.8C70.4823 192 65.1095 187.391 64.1488 181.146L56.5164 131.536C56.2253 130.52 56.0563 129.454 56.0266 128.352L42.732 41.9371C42.4405 40.921 42.2714 39.853 42.2417 38.7503L40.2186 25.6H12.8C5.73075 25.6 0 19.8692 0 12.8ZM70.0583 51.2L79.9044 115.2H207.945L226.231 51.2H70.0583ZM51.2 230.4C51.2 216.261 62.6617 204.8 76.8 204.8C90.9382 204.8 102.4 216.261 102.4 230.4C102.4 244.539 90.9382 256 76.8 256C62.6617 256 51.2 244.539 51.2 230.4ZM192 230.4C192 216.261 203.461 204.8 217.6 204.8C231.739 204.8 243.2 216.261 243.2 230.4C243.2 244.539 231.739 256 217.6 256C203.461 256 192 244.539 192 230.4Z" fill="white"/>
</svg>
