<svg width="256" height="256" viewBox="0 0 256 256" fill="none" xmlns="http://www.w3.org/2000/svg">
<path fill-rule="evenodd" clip-rule="evenodd" d="M136.669 2.12079C131.207 -0.706931 124.793 -0.706931 119.331 2.12079L119.329 2.12173C114.511 4.61657 111.998 8.99974 110.791 11.2569C109.484 13.6994 108.147 16.8324 106.81 19.9632C106.746 20.1119 106.683 20.2607 106.619 20.4093L83.2493 75.1171L26.1641 81.404C26.0072 81.4213 25.85 81.4386 25.693 81.4558C22.4286 81.8147 19.162 82.1739 16.5339 82.7149C14.1038 83.2151 9.33105 84.3545 5.56769 88.3659M136.671 2.12173L136.669 2.12079L136.671 2.12173ZM136.671 2.12173C141.489 4.61658 144.002 8.99976 145.21 11.2569C146.516 13.6994 147.853 16.8322 149.19 19.9629C149.254 20.1118 149.317 20.2607 149.381 20.4096L172.751 75.117L230.308 81.4558C233.572 81.8147 236.839 82.1739 239.467 82.7149C241.898 83.2153 246.669 84.3548 250.432 88.3653L250.435 88.3676C254.699 92.9143 256.68 99.2791 255.792 105.571C255.008 111.127 251.787 114.978 250.103 116.872C248.283 118.921 245.844 121.214 243.407 123.505L243.052 123.839L243.051 123.839L200.409 163.938L212.418 223.015C213.099 226.365 213.782 229.718 214.101 232.493C214.396 235.058 214.832 240.147 212.338 245.122L212.338 245.123C209.511 250.762 204.322 254.695 198.31 255.757L198.307 255.758C193.005 256.694 188.503 254.689 186.255 253.604C183.823 252.429 180.976 250.715 178.131 249.003L177.725 248.758L177.725 248.758L128 218.831L78.2759 248.758L77.8704 249.002C75.0251 250.715 72.1783 252.429 69.7459 253.604C67.4977 254.689 62.9963 256.694 57.694 255.758L57.6908 255.757C51.6825 254.696 46.4907 250.765 43.6629 245.123C43.6621 245.121 43.6613 245.119 43.6605 245.118C41.169 240.145 41.6055 235.058 41.9003 232.493C42.2193 229.718 42.9013 226.365 43.583 223.015L43.6814 222.531L55.5915 163.938L12.9499 123.839L12.9496 123.839C12.8312 123.728 12.7127 123.616 12.5941 123.505C10.1569 121.213 7.71809 118.921 5.89789 116.873C4.21407 114.978 0.994188 111.129 0.208991 105.576L0.208826 105.574C-0.680496 99.2805 1.30138 92.9134 5.56769 88.3659M128 37.0198L149.607 87.6004C149.657 87.7175 149.714 87.8543 149.778 88.0084C150.395 89.4877 151.675 92.5605 153.84 95.0705C155.672 97.1946 157.908 98.888 160.399 100.046L160.402 100.048C163.362 101.423 166.562 101.744 168.106 101.899C168.266 101.915 168.408 101.929 168.53 101.943L168.53 101.943L221.304 107.755L181.882 144.825L181.881 144.826C181.79 144.912 181.683 145.011 181.562 145.122C180.403 146.191 177.992 148.417 176.373 151.347C175.012 153.809 174.156 156.548 173.87 159.391C173.532 162.752 174.227 166.022 174.563 167.604C174.598 167.767 174.629 167.913 174.654 168.038L174.654 168.039L185.665 222.206L139.697 194.54M128 37.0198L106.394 87.597C106.344 87.7142 106.287 87.851 106.223 88.0048C105.605 89.4888 104.324 92.5647 102.156 95.0761L102.155 95.0769C100.328 97.1931 98.0952 98.887 95.5992 100.047L95.5978 100.048C92.6382 101.423 89.4388 101.744 87.8951 101.899C87.7353 101.915 87.5933 101.929 87.4711 101.943L87.4707 101.943L34.6969 107.755L74.1167 144.824L74.1181 144.825C74.2092 144.911 74.3157 145.009 74.4352 145.119C75.5985 146.193 78.005 148.413 79.6246 151.34L79.6283 151.347C80.9906 153.812 81.8442 156.55 82.1304 159.386L82.1305 159.387C82.4694 162.748 81.7735 166.022 81.4376 167.602C81.4028 167.766 81.3718 167.912 81.3463 168.037L81.3462 168.038L70.3355 222.206L116.303 194.54L116.305 194.54C116.411 194.476 116.534 194.4 116.671 194.316C118.014 193.491 120.774 191.794 123.938 191.09L123.956 191.086C126.622 190.497 129.378 190.497 132.044 191.086L132.063 191.09C135.226 191.794 137.987 193.491 139.329 194.316C139.466 194.4 139.589 194.476 139.696 194.54" fill="white"/>
</svg>
