<svg width="100" height="59" viewBox="0 0 100 59" fill="none" xmlns="http://www.w3.org/2000/svg">
<path d="M1.44598 30.9151V25.833H25.3746L8.9091 53.5281H24.1618V58.4703H0L16.3722 30.9151H1.44598Z" fill="white"/>
<path d="M68.0988 45.4154C68.0988 43.8301 67.7723 42.6334 67.1193 41.8253C66.4663 41.0171 65.4556 40.613 64.0874 40.613C63.1545 40.613 62.3305 40.8151 61.6152 41.2191C60.9 41.5921 60.3403 42.1516 59.936 42.8976C59.5318 43.6125 59.3297 44.4518 59.3297 45.4154V58.4703H54.2921V37.0229H59.3297V40.3333C60.0138 39.0589 60.8845 38.1108 61.9417 37.4892C63.0301 36.8675 64.3206 36.5567 65.8132 36.5567C68.2388 36.5567 70.089 37.3027 71.3639 38.7947C72.6389 40.2556 73.2764 42.276 73.2764 44.8559V58.4703H68.0988V45.4154Z" fill="white"/>
<path d="M89.0385 58.9365C86.8618 58.9365 84.9338 58.4703 83.2546 57.5378C81.6065 56.6053 80.3316 55.2998 79.4298 53.6213C78.528 51.9428 78.0771 49.9846 78.0771 47.7466C78.0771 45.4775 78.528 43.5038 79.4298 41.8253C80.3627 40.1468 81.6687 38.8568 83.3479 37.9554C85.0271 37.0229 87.0017 36.5567 89.2718 36.5567C91.5418 36.5567 93.4698 36.9918 95.0557 37.8622C96.6416 38.7325 97.8543 39.9914 98.6939 41.6388C99.5646 43.2551 100 45.2133 100 47.5135C100 47.7621 99.9844 48.0263 99.9533 48.3061C99.9533 48.5858 99.9378 48.7879 99.9067 48.9122H81.0623V45.462H95.6154L94.0761 47.6067C94.1694 47.4202 94.2627 47.1716 94.356 46.8607C94.4804 46.5188 94.5426 46.2391 94.5426 46.0215C94.5426 44.8714 94.3094 43.8768 93.8429 43.0375C93.4076 42.1983 92.7857 41.5455 91.9771 41.0793C91.1997 40.613 90.2824 40.3799 89.2251 40.3799C87.9502 40.3799 86.8618 40.6597 85.96 41.2191C85.0582 41.7786 84.3741 42.5868 83.9077 43.6436C83.4412 44.7005 83.1924 46.0059 83.1613 47.5601C83.1613 49.1143 83.3946 50.4353 83.861 51.5232C84.3274 52.58 85.0116 53.3882 85.9134 53.9477C86.8463 54.5072 87.9657 54.7869 89.2718 54.7869C90.64 54.7869 91.8372 54.5072 92.8634 53.9477C93.8896 53.3882 94.7447 52.5334 95.4288 51.3833L99.7668 53.1551C98.6473 55.0822 97.2013 56.5276 95.4288 57.4912C93.6563 58.4547 91.5262 58.9365 89.0385 58.9365Z" fill="white"/>
<path d="M44.9313 18.2586H53.0941L63.3093 33.0386H54.0737L44.9313 18.2586ZM36.7686 0.401367H44.6515V33.0386H36.7686V0.401367ZM41.7129 7.06869V0.401367H48.6629C51.4616 0.401367 53.7938 0.852073 55.6596 1.75348C57.5254 2.65489 58.9402 3.91376 59.9042 5.53008C60.8682 7.11532 61.3502 8.96476 61.3502 11.0784C61.3502 13.161 60.8682 15.0104 59.9042 16.6268C58.9402 18.212 57.5254 19.4553 55.6596 20.3567C53.7938 21.2581 51.4616 21.7088 48.6629 21.7088H41.7129V15.601H48.1032C49.1604 15.601 50.0622 15.4456 50.8085 15.1348C51.586 14.7928 52.1768 14.3111 52.581 13.6894C52.9853 13.0367 53.1874 12.2596 53.1874 11.3582C53.1874 10.4568 52.9853 9.69522 52.581 9.07356C52.1768 8.42081 51.586 7.92348 50.8085 7.58157C50.0622 7.23965 49.1604 7.06869 48.1032 7.06869H41.7129Z" fill="white"/>
<path d="M66.969 0.401367H74.852V26.2781H87.9591V33.0386H66.969V0.401367Z" fill="white"/>
<ellipse cx="37.955" cy="47.7412" rx="11.2636" ry="11.2588" fill="url(#paint0_linear_261_940)"/>
<path fill-rule="evenodd" clip-rule="evenodd" d="M37.3986 58.9865C37.5829 58.9955 37.7684 59 37.955 59C38.1232 59 38.2906 58.9963 38.457 58.989C44.4447 58.7265 49.2186 53.7911 49.2186 47.7412C49.2186 43.9645 47.3582 40.622 44.5034 38.5796C44.3674 38.4823 44.2292 38.388 44.0888 38.2967C43.9153 38.1839 43.7385 38.0758 43.5587 37.9724C42.0464 37.1038 40.3132 36.576 38.4642 36.4937C38.2954 36.4862 38.1256 36.4824 37.955 36.4824C37.7868 36.4824 37.6195 36.4861 37.4531 36.4934C31.6317 36.7486 26.9577 41.4206 26.7024 47.2394C26.6951 47.4058 26.6914 47.5731 26.6914 47.7412C26.6914 47.9444 26.6968 48.1464 26.7074 48.3469C27.0125 54.0993 31.6372 58.7064 37.3986 58.9865ZM38.0647 57.9959C37.0195 55.4924 36.5268 53.2565 36.4307 51.2764C36.164 45.7783 38.956 42.1466 41.7451 40.1554C42.3406 39.7302 42.9338 39.3817 43.4938 39.1073C43.5097 39.1175 43.5255 39.1277 43.5413 39.1379C46.3566 40.9685 48.2146 44.1383 48.2146 47.7412C48.2146 53.3684 43.6804 57.937 38.0647 57.9959ZM42.4516 38.5206C41.3662 37.9906 40.1733 37.6466 38.9134 37.5301C39.1263 37.8237 39.3982 38.0873 39.7044 38.3205C40.263 38.7459 40.8949 39.0373 41.366 39.1954C41.7305 38.9448 42.0943 38.72 42.4516 38.5206ZM40.4246 39.902C37.7927 42.0533 35.3579 45.6113 35.4097 50.7095C34.9002 50.6612 34.2921 50.6796 33.6997 50.8424C32.9625 51.0449 32.2318 51.4793 31.7768 52.2876C30.8676 51.7914 29.7596 51.2592 29.1055 50.9565C29.0169 50.4762 28.8438 49.8431 28.5637 49.228C28.3544 48.7684 28.0717 48.2889 27.6965 47.893C27.6958 47.8425 27.6954 47.7919 27.6954 47.7412C27.6954 44.7383 28.9866 42.0368 31.0444 40.1613L30.4009 41.7621C30.1145 42.0877 29.6331 42.7857 29.5137 43.5871C29.2628 44.1392 28.747 45.2505 28.511 45.7576L28.4169 45.9596L28.9488 47.2163L30.4606 45.8752C30.589 45.9394 30.7313 46.0025 30.8753 46.0528C31.0193 46.1032 31.186 46.1485 31.3537 46.1616C31.3645 46.1624 31.3757 46.1632 31.3871 46.1637C31.7921 46.9264 32.2194 47.6207 32.4043 47.9049L32.6432 48.2723L33.8919 47.6828V44.7333C34.0194 44.5655 34.1678 44.3451 34.2947 44.1057C34.4182 43.8727 34.5499 43.5697 34.5886 43.256C35.1242 42.7785 36.0493 41.9114 36.4802 41.5042L36.7748 41.2257L36.1008 40.1161L34.0427 40.683C33.7624 40.468 33.3276 40.3422 32.7716 40.361C32.6223 40.091 32.4831 39.884 32.411 39.7879L32.1802 39.4803L31.543 39.7351C33.2448 38.3715 35.3908 37.5388 37.7296 37.4884C38.0411 38.1675 38.5571 38.7084 39.096 39.1188C39.5297 39.4491 39.996 39.7091 40.4246 39.902ZM28.5284 51.7958C29.976 55.1538 33.1668 57.5845 36.9615 57.949C36.0608 55.6845 35.5893 53.6112 35.4521 51.7239C35.0213 51.6683 34.4767 51.6697 33.9658 51.8101C33.3175 51.9882 32.751 52.3773 32.4844 53.1566L32.2861 53.7365L31.7565 53.4277C30.7658 52.85 29.2462 52.124 28.5284 51.7958ZM37.1621 51.7626C37.2448 51.4981 37.5263 51.3507 37.791 51.4334C38.9823 51.8055 41.9034 52.8952 44.0785 54.2975C44.3115 54.4477 44.3785 54.7582 44.2283 54.9911C44.078 55.224 43.7673 55.2911 43.5343 55.1408C41.4675 53.8084 38.6428 52.7509 37.4915 52.3912C37.2269 52.3086 37.0794 52.0271 37.1621 51.7626ZM37.4834 46.7226C37.5783 46.4622 37.8665 46.3281 38.127 46.423C39.0883 46.7734 40.6635 47.4127 42.2819 48.1977C43.8929 48.9791 45.5814 49.9212 46.7459 50.8825C46.9596 51.059 46.9898 51.3752 46.8133 51.5889C46.6367 51.8026 46.3203 51.8328 46.1065 51.6563C45.0371 50.7735 43.4365 49.8732 41.8436 49.1006C40.2581 48.3316 38.7146 47.7054 37.783 47.3659C37.5225 47.2709 37.3884 46.9829 37.4834 46.7226ZM40.3662 42.8597C40.4556 42.5973 40.7407 42.457 41.0032 42.5463C41.7783 42.8099 43.0215 43.3091 44.2564 43.9578C45.4791 44.6001 46.7502 45.4177 47.5302 46.3341C47.7098 46.5452 47.6843 46.8619 47.4731 47.0414C47.2619 47.221 46.9451 47.1955 46.7655 46.9844C46.1147 46.2198 44.9857 45.4746 43.7894 44.8462C42.6052 44.2242 41.4106 43.7449 40.6798 43.4963C40.4173 43.4071 40.2769 43.122 40.3662 42.8597ZM32.8879 44.3749L33.006 44.2348C33.112 44.1089 33.2768 43.8826 33.4076 43.6359C33.5483 43.3705 33.6032 43.1671 33.5952 43.0579L33.5769 42.8072L33.7667 42.6424C34.0638 42.3846 34.6058 41.8843 35.0854 41.4368L33.5858 41.8499L33.429 41.4804C33.4157 41.4699 33.3849 41.449 33.3256 41.4265C33.1993 41.3786 32.9561 41.3315 32.5464 41.3861L32.1864 41.4341L32.0282 41.1073C31.9748 40.9971 31.9203 40.8944 31.8685 40.8028L31.2625 42.3105L31.1953 42.3806C30.9927 42.592 30.5701 43.185 30.5001 43.7851L30.491 43.8626L30.4588 43.9338C30.3492 44.176 30.1743 44.5562 29.9932 44.948L30.3417 44.6388L30.6603 44.8385C30.7927 44.9215 31.0072 45.0357 31.207 45.1056C31.3065 45.1404 31.3818 45.1569 31.4301 45.1609L31.8536 44.8723L32.112 45.3816C32.3705 45.891 32.6575 46.3937 32.8879 46.7793V44.3749ZM31.4589 45.1614C31.459 45.1615 31.4577 45.1617 31.455 45.1618C31.4575 45.1614 31.4589 45.1614 31.4589 45.1614Z" fill="white"/>
<defs>
<linearGradient id="paint0_linear_261_940" x1="31.8721" y1="41.6318" x2="44.0908" y2="54.2049" gradientUnits="userSpaceOnUse">
<stop stop-color="#A064FF"/>
<stop offset="1" stop-color="#64C3FF"/>
</linearGradient>
</defs>
</svg>
