<svg width="466" height="88" viewBox="0 0 466 88" fill="none" xmlns="http://www.w3.org/2000/svg">
<circle cx="43.6007" cy="43.6007" r="43.6007" fill="url(#paint0_linear_58_141)"/>
<path fill-rule="evenodd" clip-rule="evenodd" d="M41.447 87.1491C42.1605 87.1838 42.8785 87.2014 43.6007 87.2014C44.2519 87.2014 44.8997 87.1871 45.5439 87.1589C68.7222 86.1423 87.2014 67.0295 87.2014 43.6007C87.2014 28.9749 79.9999 16.031 68.9493 8.12167C68.4229 7.74489 67.8878 7.37954 67.3442 7.02598C66.6728 6.58918 65.9885 6.17037 65.2922 5.77023C59.4381 2.40636 52.7293 0.362203 45.5717 0.043758C44.9184 0.0146889 44.2612 0 43.6007 0C42.9496 0 42.3019 0.0142704 41.6578 0.0425154C19.1236 1.03067 1.03081 19.1233 0.0425265 41.6575C0.0142741 42.3017 0 42.9495 0 43.6007C0 44.3876 0.0208492 45.1697 0.0620253 45.9464C1.243 68.223 19.145 86.0643 41.447 87.1491ZM44.0255 83.3127C39.9795 73.6177 38.0721 64.9589 37.7002 57.2912C36.6677 35.9992 47.4755 21.9349 58.2718 14.2238C60.577 12.5774 62.8734 11.2276 65.0413 10.165C65.1027 10.2044 65.1639 10.244 65.225 10.2838C76.1227 17.3728 83.315 29.6479 83.315 43.6007C83.315 65.3925 65.7634 83.0849 44.0255 83.3127ZM61.007 7.89311C56.8054 5.84073 52.1876 4.50847 47.3106 4.05718C48.1348 5.19409 49.1872 6.21496 50.3726 7.1181C52.5348 8.76541 54.9809 9.89396 56.8045 10.5064C58.2154 9.53592 59.6237 8.66521 61.007 7.89311ZM53.1606 13.2428C42.9727 21.5738 33.5474 35.3525 33.7482 55.0957C31.776 54.9085 29.422 54.98 27.1287 55.6103C24.2752 56.3946 21.4465 58.0769 19.6852 61.207C16.1656 59.2854 11.8767 57.2244 9.34466 56.0521C9.00171 54.1922 8.33172 51.7405 7.24755 49.3586C6.43737 47.5786 5.34319 45.7217 3.89067 44.1884C3.88784 43.9928 3.88641 43.7969 3.88641 43.6007C3.88641 31.9716 8.88472 21.5099 16.8502 14.2467L14.3594 20.4461C13.2507 21.7071 11.3873 24.4101 10.9249 27.5135C9.95374 29.6515 7.95716 33.9552 7.04336 35.9189L6.67931 36.7012L8.73829 41.5679L14.5902 36.3743C15.0872 36.6231 15.6382 36.8672 16.1955 37.0623C16.753 37.2574 17.3983 37.4328 18.0474 37.4834C18.0893 37.4867 18.1325 37.4895 18.1768 37.4918C19.7447 40.4452 21.3987 43.1338 22.1143 44.2346L23.039 45.6573L27.8729 43.3746V31.9522C28.3663 31.3025 28.9409 30.449 29.4321 29.5219C29.9101 28.6197 30.4198 27.446 30.5696 26.2314C32.643 24.3823 36.224 21.0244 37.8917 19.4473L39.0323 18.3687L36.4233 14.0716L28.4566 16.2672C27.3712 15.4345 25.6883 14.9472 23.536 15.02C22.958 13.9745 22.4194 13.1728 22.1404 12.8009L21.2469 11.6095L18.7802 12.5962C25.368 7.31548 33.675 4.09096 42.7281 3.89581C43.9339 6.52573 45.9315 8.62033 48.0174 10.2095C49.6961 11.4885 51.5014 12.4957 53.1606 13.2428ZM7.11109 59.3023C12.7143 72.3065 25.0658 81.7197 39.755 83.1312C36.2684 74.3618 34.4432 66.3328 33.912 59.0238C32.2444 58.8087 30.1366 58.8141 28.1587 59.3577C25.6493 60.0474 23.4564 61.5545 22.4245 64.5723L21.6567 66.8179L19.6067 65.6221C15.7716 63.385 9.88938 60.5735 7.11109 59.3023ZM40.5314 59.174C40.8515 58.1496 41.9414 57.5787 42.9658 57.8988C47.5774 59.34 58.8849 63.5601 67.3044 68.9904C68.2063 69.5721 68.4659 70.7748 67.8842 71.6767C67.3025 72.5785 66.0998 72.8381 65.1979 72.2564C57.1973 67.0963 46.2633 63.0011 41.8066 61.6083C40.7822 61.2882 40.2113 60.1983 40.5314 59.174ZM41.7751 39.6558C42.1427 38.6476 43.2581 38.1283 44.2664 38.4959C47.9877 39.8529 54.0851 42.3286 60.3499 45.3684C66.5861 48.3944 73.1222 52.043 77.6297 55.7655C78.4572 56.4489 78.574 57.6737 77.8906 58.5012C77.2072 59.3287 75.9824 59.4456 75.1549 58.7622C71.0152 55.3434 64.8191 51.8568 58.6533 48.8649C52.516 45.8869 46.5412 43.4621 42.935 42.1472C41.9267 41.7795 41.4074 40.6641 41.7751 39.6558ZM52.9345 24.6964C53.2802 23.6804 54.3841 23.1371 55.4001 23.4828C58.4006 24.5038 63.213 26.4371 67.9931 28.9491C72.7262 31.4364 77.6466 34.6027 80.6657 38.1515C81.3611 38.9689 81.2622 40.1953 80.4448 40.8907C79.6274 41.5861 78.401 41.4872 77.7056 40.6698C75.1866 37.7088 70.816 34.8229 66.1852 32.3894C61.6016 29.9806 56.9773 28.1247 54.1481 27.162C53.1322 26.8163 52.5888 25.7124 52.9345 24.6964ZM23.9865 30.5643L24.4433 30.0218C24.8538 29.5343 25.4916 28.658 25.9979 27.7024C26.5425 26.6746 26.7552 25.887 26.7243 25.4642L26.6532 24.4934L27.3882 23.8552C28.5382 22.8565 30.6363 20.9193 32.4928 19.1862L26.6879 20.7859L26.0808 19.3551C26.0295 19.3144 25.9103 19.2334 25.6806 19.1463C25.1919 18.9609 24.2503 18.7785 22.6644 18.9899L21.2708 19.1758L20.6584 17.9102C20.4519 17.4833 20.2406 17.0859 20.0403 16.7312L17.6945 22.5699L17.4344 22.8412C16.65 23.6597 15.0143 25.9563 14.7431 28.2802L14.7081 28.5805L14.5835 28.856C14.1592 29.794 13.4819 31.2665 12.7809 32.7838L14.1302 31.5864L15.3636 32.3598C15.8761 32.6812 16.7063 33.1234 17.4796 33.3941C17.8648 33.529 18.1563 33.5928 18.3434 33.6082L19.9824 32.4907L20.9829 34.463C21.9834 36.4354 23.0944 38.3825 23.9865 39.8754V30.5643ZM18.4548 33.6103C18.455 33.6105 18.4502 33.6112 18.4398 33.6117C18.4494 33.6102 18.4546 33.61 18.4548 33.6103Z" fill="white"/>
<path d="M146.336 45.6343H163.228L184.367 76.2327H165.255L146.336 45.6343ZM129.444 8.66528H145.757V76.2327H129.444V8.66528ZM139.676 22.4683V8.66528H154.058C159.849 8.66528 164.676 9.59836 168.537 11.4645C172.398 13.3307 175.326 15.9368 177.32 19.283C179.315 22.5649 180.313 26.3937 180.313 30.7695C180.313 35.0809 179.315 38.9097 177.32 42.2559C175.326 45.5378 172.398 48.1118 168.537 49.9779C164.676 51.844 159.849 52.7771 154.058 52.7771H139.676V40.1324H152.9C155.088 40.1324 156.954 39.8106 158.498 39.1671C160.107 38.4593 161.329 37.4619 162.166 36.1749C163.003 34.8235 163.421 33.2148 163.421 31.3486C163.421 29.4825 163.003 27.9059 162.166 26.6189C161.329 25.2676 160.107 24.238 158.498 23.5301C156.954 22.8223 155.088 22.4683 152.9 22.4683H139.676Z" fill="white"/>
<path d="M191.94 8.66528H208.253V62.2366H235.376V76.2327H191.94V8.66528Z" fill="white"/>
<path d="M262.012 20.2834V9.76216H311.529L277.456 67.0979H309.02V77.3295H259.02L292.9 20.2834H262.012Z" fill="white"/>
<path d="M313.645 55.1288C313.645 50.56 314.675 46.5381 316.734 43.0632C318.858 39.5883 321.721 36.8856 325.325 34.9551C328.928 32.9603 333.015 31.9629 337.583 31.9629C342.152 31.9629 346.206 32.9603 349.746 34.9551C353.349 36.8856 356.213 39.5883 358.336 43.0632C360.46 46.5381 361.522 50.56 361.522 55.1288C361.522 59.6333 360.46 63.6552 358.336 67.1944C356.213 70.6693 353.349 73.4042 349.746 75.399C346.206 77.3295 342.152 78.2948 337.583 78.2948C333.015 78.2948 328.928 77.3295 325.325 75.399C321.721 73.4042 318.858 70.6693 316.734 67.1944C314.675 63.6552 313.645 59.6333 313.645 55.1288ZM324.36 55.1288C324.36 57.8959 324.939 60.3412 326.097 62.4647C327.255 64.5239 328.832 66.1648 330.827 67.3875C332.822 68.5458 335.074 69.1249 337.583 69.1249C340.029 69.1249 342.249 68.5458 344.244 67.3875C346.303 66.1648 347.912 64.5239 349.07 62.4647C350.228 60.3412 350.807 57.8959 350.807 55.1288C350.807 52.3618 350.228 49.9165 349.07 47.7929C347.912 45.6694 346.303 44.0285 344.244 42.8702C342.249 41.7119 340.029 41.1327 337.583 41.1327C335.074 41.1327 332.822 41.7119 330.827 42.8702C328.832 44.0285 327.255 45.6694 326.097 47.7929C324.939 49.9165 324.36 52.3618 324.36 55.1288Z" fill="white"/>
<path d="M399.985 50.3026C399.985 47.0207 399.309 44.5433 397.957 42.8702C396.606 41.1971 394.515 40.3605 391.683 40.3605C389.753 40.3605 388.048 40.7788 386.568 41.6153C385.088 42.3875 383.929 43.5458 383.093 45.0902C382.256 46.5703 381.838 48.3077 381.838 50.3026V77.3295H371.413V32.9281H381.838V39.7814C383.254 37.143 385.055 35.1804 387.243 33.8934C389.495 32.6064 392.166 31.9629 395.255 31.9629C400.274 31.9629 404.103 33.5073 406.741 36.5961C409.38 39.6205 410.699 43.8032 410.699 49.1443V77.3295H399.985V50.3026Z" fill="white"/>
<path d="M443.317 78.2948C438.812 78.2948 434.822 77.3295 431.348 75.399C427.937 73.4685 425.299 70.7658 423.433 67.2909C421.566 63.8161 420.633 59.762 420.633 55.1288C420.633 50.4313 421.566 46.3451 423.433 42.8702C425.363 39.3953 428.066 36.7248 431.541 34.8586C435.016 32.9281 439.102 31.9629 443.799 31.9629C448.497 31.9629 452.486 32.8638 455.768 34.6656C459.05 36.4674 461.56 39.0735 463.297 42.4841C465.099 45.8303 466 49.8843 466 54.6462C466 55.161 465.968 55.708 465.903 56.2871C465.903 56.8663 465.871 57.2845 465.807 57.5419H426.811V50.3991H456.927L453.741 54.8392C453.934 54.4531 454.127 53.9383 454.32 53.2948C454.578 52.587 454.707 52.0079 454.707 51.5574C454.707 49.1765 454.224 47.1173 453.259 45.3798C452.358 43.6424 451.071 42.291 449.398 41.3258C447.789 40.3605 445.891 39.8779 443.703 39.8779C441.064 39.8779 438.812 40.4571 436.946 41.6153C435.08 42.7736 433.664 44.4467 432.699 46.6346C431.734 48.8225 431.219 51.5252 431.154 54.7427C431.154 57.9602 431.637 60.6951 432.602 62.9473C433.568 65.1352 434.983 66.8083 436.849 67.9666C438.78 69.1249 441.097 69.7041 443.799 69.7041C446.631 69.7041 449.108 69.1249 451.232 67.9666C453.355 66.8083 455.125 65.0387 456.54 62.6578L465.517 66.3257C463.201 70.3154 460.208 73.3077 456.54 75.3025C452.873 77.2973 448.465 78.2948 443.317 78.2948Z" fill="white"/>
<defs>
<linearGradient id="paint0_linear_58_141" x1="20.0541" y1="19.9414" x2="67.3726" y2="68.6119" gradientUnits="userSpaceOnUse">
<stop stop-color="#A064FF"/>
<stop offset="1" stop-color="#64C3FF"/>
</linearGradient>
</defs>
</svg>
