<svg width="386" height="381" viewBox="0 0 386 381" fill="none" xmlns="http://www.w3.org/2000/svg">
<circle cx="190.5" cy="190.5" r="190.5" fill="url(#paint0_linear_58_6)"/>
<path d="M171.824 132.208H202.624L241.168 188H206.32L171.824 132.208ZM141.024 64.8H170.768V188H141.024V64.8ZM159.68 89.968V64.8H185.904C196.464 64.8 205.264 66.5013 212.304 69.904C219.344 73.3067 224.683 78.0587 228.32 84.16C231.957 90.144 233.776 97.1253 233.776 105.104C233.776 112.965 231.957 119.947 228.32 126.048C224.683 132.032 219.344 136.725 212.304 140.128C205.264 143.531 196.464 145.232 185.904 145.232H159.68V122.176H183.792C187.781 122.176 191.184 121.589 194 120.416C196.933 119.125 199.163 117.307 200.688 114.96C202.213 112.496 202.976 109.563 202.976 106.16C202.976 102.757 202.213 99.8827 200.688 97.536C199.163 95.072 196.933 93.1947 194 91.904C191.184 90.6133 187.781 89.968 183.792 89.968H159.68ZM254.977 64.8H284.721V162.48H334.177V188H254.977V64.8Z" fill="white"/>
<path d="M7.744 179.984V160.8H98.032L35.904 265.344H93.456V284H2.288L64.064 179.984H7.744ZM101.89 243.52C101.89 235.189 103.768 227.856 107.522 221.52C111.394 215.184 116.616 210.256 123.186 206.736C129.757 203.099 137.208 201.28 145.538 201.28C153.869 201.28 161.261 203.099 167.714 206.736C174.285 210.256 179.506 215.184 183.378 221.52C187.25 227.856 189.186 235.189 189.186 243.52C189.186 251.733 187.25 259.067 183.378 265.52C179.506 271.856 174.285 276.843 167.714 280.48C161.261 284 153.869 285.76 145.538 285.76C137.208 285.76 129.757 284 123.186 280.48C116.616 276.843 111.394 271.856 107.522 265.52C103.768 259.067 101.89 251.733 101.89 243.52ZM121.426 243.52C121.426 248.565 122.482 253.024 124.594 256.896C126.706 260.651 129.581 263.643 133.218 265.872C136.856 267.984 140.962 269.04 145.538 269.04C149.997 269.04 154.045 267.984 157.682 265.872C161.437 263.643 164.37 260.651 166.482 256.896C168.594 253.024 169.65 248.565 169.65 243.52C169.65 238.475 168.594 234.016 166.482 230.144C164.37 226.272 161.437 223.28 157.682 221.168C154.045 219.056 149.997 218 145.538 218C140.962 218 136.856 219.056 133.218 221.168C129.581 223.28 126.706 226.272 124.594 230.144C122.482 234.016 121.426 238.475 121.426 243.52ZM259.318 234.72C259.318 228.736 258.086 224.219 255.622 221.168C253.158 218.117 249.345 216.592 244.182 216.592C240.662 216.592 237.553 217.355 234.854 218.88C232.155 220.288 230.043 222.4 228.518 225.216C226.993 227.915 226.23 231.083 226.23 234.72V284H207.222V203.04H226.23V215.536C228.811 210.725 232.097 207.147 236.086 204.8C240.193 202.453 245.062 201.28 250.694 201.28C259.846 201.28 266.827 204.096 271.638 209.728C276.449 215.243 278.854 222.869 278.854 232.608V284H259.318V234.72ZM338.328 285.76C330.115 285.76 322.84 284 316.504 280.48C310.286 276.96 305.475 272.032 302.072 265.696C298.67 259.36 296.968 251.968 296.968 243.52C296.968 234.955 298.67 227.504 302.072 221.168C305.592 214.832 310.52 209.963 316.856 206.56C323.192 203.04 330.643 201.28 339.208 201.28C347.774 201.28 355.048 202.923 361.032 206.208C367.016 209.493 371.592 214.245 374.76 220.464C378.046 226.565 379.688 233.957 379.688 242.64C379.688 243.579 379.63 244.576 379.512 245.632C379.512 246.688 379.454 247.451 379.336 247.92H308.232V234.896H363.144L357.336 242.992C357.688 242.288 358.04 241.349 358.392 240.176C358.862 238.885 359.096 237.829 359.096 237.008C359.096 232.667 358.216 228.912 356.456 225.744C354.814 222.576 352.467 220.112 349.416 218.352C346.483 216.592 343.022 215.712 339.032 215.712C334.222 215.712 330.115 216.768 326.712 218.88C323.31 220.992 320.728 224.043 318.968 228.032C317.208 232.021 316.27 236.949 316.152 242.816C316.152 248.683 317.032 253.669 318.792 257.776C320.552 261.765 323.134 264.816 326.536 266.928C330.056 269.04 334.28 270.096 339.208 270.096C344.371 270.096 348.888 269.04 352.76 266.928C356.632 264.816 359.859 261.589 362.44 257.248L378.808 263.936C374.584 271.211 369.128 276.667 362.44 280.304C355.752 283.941 347.715 285.76 338.328 285.76Z" fill="white"/>
<defs>
<linearGradient id="paint0_linear_58_6" x1="87.6202" y1="87.1279" x2="294.364" y2="299.779" gradientUnits="userSpaceOnUse">
<stop stop-color="#A064FF"/>
<stop offset="1" stop-color="#64C3FF"/>
</linearGradient>
</defs>
</svg>
