<svg width="253" height="74" viewBox="0 0 253 74" fill="none" xmlns="http://www.w3.org/2000/svg">
<ellipse cx="23.4042" cy="36.9805" rx="23.4042" ry="22.9805" fill="url(#paint0_linear_63_45)"/>
<path fill-rule="evenodd" clip-rule="evenodd" d="M22.2481 59.9334C22.6311 59.9517 23.0166 59.9609 23.4042 59.9609C23.7537 59.9609 24.1015 59.9534 24.4473 59.9385C36.889 59.4027 46.8084 49.329 46.8084 36.9805C46.8084 29.2717 42.9427 22.4494 37.011 18.2807C36.7284 18.0821 36.4411 17.8895 36.1494 17.7032C35.789 17.4729 35.4217 17.2522 35.0479 17.0413C31.9055 15.2683 28.3043 14.1909 24.4622 14.0231C24.1115 14.0077 23.7588 14 23.4042 14C23.0547 14 22.707 14.0075 22.3613 14.0224C10.2652 14.5432 0.553326 24.0793 0.0228276 35.9563C0.00766214 36.2958 0 36.6373 0 36.9805C0 37.3952 0.0111915 37.8075 0.0332943 38.2168C0.667224 49.9581 10.2768 59.3616 22.2481 59.9334ZM23.6322 57.9114C21.4604 52.8014 20.4365 48.2377 20.2369 44.1963C19.6827 32.974 25.4842 25.5612 31.2794 21.4969C32.5169 20.6291 33.7495 19.9177 34.9132 19.3576C34.9461 19.3784 34.979 19.3993 35.0118 19.4202C40.8615 23.1566 44.7222 29.6264 44.7222 36.9805C44.7222 48.4662 35.3008 57.7913 23.6322 57.9114ZM32.7477 18.1602C30.4923 17.0785 28.0135 16.3763 25.3957 16.1384C25.838 16.7376 26.403 17.2757 27.0393 17.7517C28.1999 18.62 29.5129 19.2148 30.4918 19.5376C31.2492 19.0261 32.0051 18.5671 32.7477 18.1602ZM28.5358 20.9798C23.0671 25.3708 18.0077 32.6331 18.1155 43.0391C17.0569 42.9404 15.7933 42.9781 14.5623 43.3103C13.0306 43.7237 11.5122 44.6104 10.5667 46.2602C8.67747 45.2474 6.37522 44.1611 5.01607 43.5432C4.83198 42.5629 4.47234 41.2707 3.89038 40.0152C3.45548 39.0771 2.86815 38.0984 2.08846 37.2902C2.08693 37.1872 2.08617 37.0839 2.08617 36.9805C2.08617 30.8511 4.76919 25.3371 9.04495 21.509L7.70791 24.7765C7.11279 25.4411 6.11253 26.8657 5.86434 28.5015C5.34302 29.6283 4.27128 31.8967 3.78077 32.9317L3.58536 33.344L4.69059 35.909L7.8318 33.1717C8.09857 33.3028 8.39435 33.4314 8.69351 33.5343C8.99278 33.6372 9.33916 33.7296 9.68757 33.7562C9.71006 33.758 9.73324 33.7595 9.75704 33.7607C10.5986 35.3173 11.4865 36.7344 11.8706 37.3146L12.367 38.0644L14.9617 36.8613V30.8409C15.2266 30.4985 15.535 30.0487 15.7987 29.56C16.0553 29.0845 16.3289 28.4658 16.4093 27.8257C17.5223 26.8511 19.4445 25.0813 20.3397 24.25L20.9519 23.6815L19.5515 21.4167L15.2751 22.5739C14.6925 22.135 13.7891 21.8782 12.6338 21.9165C12.3235 21.3655 12.0344 20.943 11.8846 20.7469L11.405 20.119L10.0809 20.639C13.6172 17.8557 18.0763 16.1562 22.9358 16.0534C23.5831 17.4395 24.6553 18.5435 25.775 19.3811C26.6761 20.0552 27.6452 20.5861 28.5358 20.9798ZM3.81713 45.2562C6.82486 52.1104 13.455 57.0717 21.3399 57.8157C19.4683 53.1936 18.4886 48.9618 18.2035 45.1095C17.3083 44.9961 16.1769 44.9989 15.1152 45.2855C13.7682 45.649 12.5911 46.4433 12.0372 48.0339L11.625 49.2175L10.5246 48.5872C8.46597 47.4081 5.30847 45.9263 3.81713 45.2562ZM21.7567 45.1886C21.9285 44.6487 22.5135 44.3478 23.0634 44.5165C25.5388 45.2761 31.6086 47.5004 36.128 50.3625C36.6121 50.6691 36.7515 51.303 36.4392 51.7784C36.127 52.2537 35.4814 52.3905 34.9973 52.0839C30.7027 49.3642 24.8335 47.2058 22.4412 46.4717C21.8913 46.303 21.5848 45.7285 21.7567 45.1886ZM22.4242 34.9013C22.6216 34.3698 23.2203 34.0961 23.7615 34.2899C25.7591 35.0051 29.0321 36.31 32.3949 37.9122C35.7425 39.5071 39.2509 41.4301 41.6705 43.3922C42.1146 43.7523 42.1774 44.3979 41.8105 44.834C41.4437 45.2702 40.7862 45.3318 40.3421 44.9716C38.1199 43.1697 34.794 41.332 31.4842 39.7551C28.1898 38.1855 24.9826 36.9074 23.0469 36.2144C22.5056 36.0206 22.2269 35.4327 22.4242 34.9013ZM28.4145 27.0167C28.6 26.4812 29.1926 26.1948 29.738 26.377C31.3486 26.9151 33.9318 27.9341 36.4977 29.2581C39.0383 30.5691 41.6796 32.2379 43.3002 34.1084C43.6735 34.5392 43.6204 35.1856 43.1816 35.5521C42.7428 35.9187 42.0845 35.8665 41.7112 35.4357C40.359 33.8751 38.013 32.354 35.5273 31.0714C33.0668 29.8018 30.5845 28.8236 29.0659 28.3162C28.5206 28.134 28.2289 27.5522 28.4145 27.0167ZM12.8756 30.1094L13.1208 29.8235C13.3411 29.5666 13.6835 29.1047 13.9553 28.601C14.2476 28.0593 14.3618 27.6442 14.3452 27.4213L14.3071 26.9097L14.7016 26.5733C15.3189 26.0469 16.4451 25.0259 17.4417 24.1124L14.3257 24.9556L13.9998 24.2014C13.9723 24.18 13.9082 24.1373 13.785 24.0914C13.5226 23.9936 13.0172 23.8975 12.1659 24.009L11.4178 24.1069L11.0891 23.4398C10.9783 23.2149 10.8649 23.0054 10.7574 22.8185L9.49812 25.8958L9.35854 26.0389C8.93748 26.4703 8.05943 27.6807 7.9139 28.9056L7.89509 29.0638L7.8282 29.209C7.60042 29.7034 7.23689 30.4795 6.86059 31.2793L7.58486 30.6481L8.24693 31.0558C8.52203 31.2252 8.96769 31.4582 9.38282 31.6009C9.58954 31.672 9.74604 31.7056 9.84644 31.7138L10.7263 31.1248L11.2633 32.1643C11.8003 33.2039 12.3967 34.2301 12.8756 35.017V30.1094ZM9.90626 31.7149C9.90636 31.715 9.90378 31.7154 9.8982 31.7156C9.90335 31.7148 9.90616 31.7147 9.90626 31.7149Z" fill="white"/>
<path d="M78.6014 35.784H87.0014L97.5134 51H88.0094L78.6014 35.784ZM70.2014 17.4H78.3134V51H70.2014V17.4ZM75.2894 24.264V17.4H82.4414C85.3214 17.4 87.7214 17.864 89.6414 18.792C91.5614 19.72 93.0174 21.016 94.0094 22.68C95.0014 24.312 95.4974 26.216 95.4974 28.392C95.4974 30.536 95.0014 32.44 94.0094 34.104C93.0174 35.736 91.5614 37.016 89.6414 37.944C87.7214 38.872 85.3214 39.336 82.4414 39.336H75.2894V33.048H81.8654C82.9534 33.048 83.8814 32.888 84.6494 32.568C85.4494 32.216 86.0574 31.72 86.4734 31.08C86.8894 30.408 87.0974 29.608 87.0974 28.68C87.0974 27.752 86.8894 26.968 86.4734 26.328C86.0574 25.656 85.4494 25.144 84.6494 24.792C83.8814 24.44 82.9534 24.264 81.8654 24.264H75.2894ZM101.28 17.4H109.392V44.04H122.88V51H101.28V17.4Z" fill="white"/>
<path d="M141.476 23.2101V17.9781H166.1L149.156 46.4901H164.852V51.5781H139.988L156.836 23.2101H141.476ZM167.153 40.5381C167.153 38.2661 167.665 36.2661 168.689 34.5381C169.745 32.8101 171.169 31.4661 172.961 30.5061C174.753 29.5141 176.785 29.0181 179.057 29.0181C181.329 29.0181 183.345 29.5141 185.105 30.5061C186.897 31.4661 188.321 32.8101 189.377 34.5381C190.433 36.2661 190.961 38.2661 190.961 40.5381C190.961 42.7781 190.433 44.7781 189.377 46.5381C188.321 48.2661 186.897 49.6261 185.105 50.6181C183.345 51.5781 181.329 52.0581 179.057 52.0581C176.785 52.0581 174.753 51.5781 172.961 50.6181C171.169 49.6261 169.745 48.2661 168.689 46.5381C167.665 44.7781 167.153 42.7781 167.153 40.5381ZM172.481 40.5381C172.481 41.9141 172.769 43.1301 173.345 44.1861C173.921 45.2101 174.705 46.0261 175.697 46.6341C176.689 47.2101 177.809 47.4981 179.057 47.4981C180.273 47.4981 181.377 47.2101 182.369 46.6341C183.393 46.0261 184.193 45.2101 184.769 44.1861C185.345 43.1301 185.633 41.9141 185.633 40.5381C185.633 39.1621 185.345 37.9461 184.769 36.8901C184.193 35.8341 183.393 35.0181 182.369 34.4421C181.377 33.8661 180.273 33.5781 179.057 33.5781C177.809 33.5781 176.689 33.8661 175.697 34.4421C174.705 35.0181 173.921 35.8341 173.345 36.8901C172.769 37.9461 172.481 39.1621 172.481 40.5381ZM210.087 38.1381C210.087 36.5061 209.751 35.2741 209.079 34.4421C208.407 33.6101 207.367 33.1941 205.959 33.1941C204.999 33.1941 204.151 33.4021 203.415 33.8181C202.679 34.2021 202.103 34.7781 201.687 35.5461C201.271 36.2821 201.063 37.1461 201.063 38.1381V51.5781H195.879V29.4981H201.063V32.9061C201.767 31.5941 202.663 30.6181 203.751 29.9781C204.871 29.3381 206.199 29.0181 207.735 29.0181C210.231 29.0181 212.135 29.7861 213.447 31.3221C214.759 32.8261 215.415 34.9061 215.415 37.5621V51.5781H210.087V38.1381ZM231.636 52.0581C229.396 52.0581 227.412 51.5781 225.684 50.6181C223.988 49.6581 222.676 48.3141 221.748 46.5861C220.82 44.8581 220.356 42.8421 220.356 40.5381C220.356 38.2021 220.82 36.1701 221.748 34.4421C222.708 32.7141 224.052 31.3861 225.78 30.4581C227.508 29.4981 229.54 29.0181 231.876 29.0181C234.212 29.0181 236.196 29.4661 237.828 30.3621C239.46 31.2581 240.708 32.5541 241.572 34.2501C242.468 35.9141 242.916 37.9301 242.916 40.2981C242.916 40.5541 242.9 40.8261 242.868 41.1141C242.868 41.4021 242.852 41.6101 242.82 41.7381H223.428V38.1861H238.404L236.82 40.3941C236.916 40.2021 237.012 39.9461 237.108 39.6261C237.236 39.2741 237.3 38.9861 237.3 38.7621C237.3 37.5781 237.06 36.5541 236.58 35.6901C236.132 34.8261 235.492 34.1541 234.66 33.6741C233.86 33.1941 232.916 32.9541 231.828 32.9541C230.516 32.9541 229.396 33.2421 228.468 33.8181C227.54 34.3941 226.836 35.2261 226.356 36.3141C225.876 37.4021 225.62 38.7461 225.588 40.3461C225.588 41.9461 225.828 43.3061 226.308 44.4261C226.788 45.5141 227.492 46.3461 228.42 46.9221C229.38 47.4981 230.532 47.7861 231.876 47.7861C233.284 47.7861 234.516 47.4981 235.572 46.9221C236.628 46.3461 237.508 45.4661 238.212 44.2821L242.676 46.1061C241.524 48.0901 240.036 49.5781 238.212 50.5701C236.388 51.5621 234.196 52.0581 231.636 52.0581Z" fill="white"/>
<defs>
<linearGradient id="paint0_linear_63_45" x1="10.7647" y1="24.5104" x2="35.6878" y2="50.6183" gradientUnits="userSpaceOnUse">
<stop stop-color="#A064FF"/>
<stop offset="1" stop-color="#64C3FF"/>
</linearGradient>
</defs>
</svg>
