<svg width="24" height="24" viewBox="0 0 24 24" fill="none" xmlns="http://www.w3.org/2000/svg">
<path d="M22.8 0H1.2C0.88174 0 0.576515 0.126428 0.351472 0.351472C0.126428 0.576515 0 0.88174 0 1.2V22.8C0 23.1183 0.126428 23.4235 0.351472 23.6485C0.576515 23.8736 0.88174 24 1.2 24H22.8C23.1183 24 23.4235 23.8736 23.6485 23.6485C23.8736 23.4235 24 23.1183 24 22.8V1.2C24 0.88174 23.8736 0.576515 23.6485 0.351472C23.4235 0.126428 23.1183 0 22.8 0ZM2.4 2.4H21.6V4.8H2.4V2.4ZM21.6 21.6H2.4V7.2H21.6V21.6ZM4.8 12C4.8 11.6817 4.92643 11.3765 5.15147 11.1515C5.37652 10.9264 5.68174 10.8 6 10.8H18C18.3183 10.8 18.6235 10.9264 18.8485 11.1515C19.0736 11.3765 19.2 11.6817 19.2 12C19.2 12.3183 19.0736 12.6235 18.8485 12.8485C18.6235 13.0736 18.3183 13.2 18 13.2H6C5.68174 13.2 5.37652 13.0736 5.15147 12.8485C4.92643 12.6235 4.8 12.3183 4.8 12ZM4.8 16.8C4.8 16.4817 4.92643 16.1765 5.15147 15.9515C5.37652 15.7264 5.68174 15.6 6 15.6H12C12.3183 15.6 12.6235 15.7264 12.8485 15.9515C13.0736 16.1765 13.2 16.4817 13.2 16.8C13.2 17.1183 13.0736 17.4235 12.8485 17.6485C12.6235 17.8736 12.3183 18 12 18H6C5.68174 18 5.37652 17.8736 5.15147 17.6485C4.92643 17.4235 4.8 17.1183 4.8 16.8Z" fill="#39B2FF"/>
</svg>
