<svg width="800" height="800" viewBox="0 0 800 800" fill="none" xmlns="http://www.w3.org/2000/svg">
<path d="M162.826 99.9999C167.206 99.9697 171.516 101.09 175.326 103.25L650.326 378.25C654.174 380.43 657.374 383.592 659.6 387.413C661.827 391.234 663 395.578 663 400C663 404.422 661.827 408.766 659.6 412.587C657.374 416.408 654.174 419.57 650.326 421.75L175.326 696.75C171.526 698.944 167.215 700.099 162.826 700.099C158.438 700.099 154.127 698.944 150.326 696.75C146.511 694.547 143.346 691.376 141.151 687.556C138.956 683.737 137.809 679.405 137.826 675L137.826 125C137.826 118.369 140.46 112.011 145.149 107.322C149.837 102.634 156.196 99.9999 162.826 99.9999ZM587.826 400L187.826 168.25L187.826 631.75L587.826 400Z" fill="white"/>
</svg>
