<svg width="800" height="800" viewBox="0 0 800 800" fill="none" xmlns="http://www.w3.org/2000/svg">
<path d="M125 99.9999C129.38 99.9697 133.69 101.09 137.5 103.25L612.5 378.25C616.348 380.43 619.548 383.592 621.774 387.413C624.001 391.234 625.174 395.578 625.174 400C625.174 404.422 624.001 408.766 621.774 412.587C619.548 416.408 616.348 419.57 612.5 421.75L137.5 696.75C133.7 698.944 129.389 700.099 125 700.099C120.612 700.099 116.301 698.944 112.5 696.75C108.685 694.547 105.52 691.376 103.325 687.556C101.129 683.737 99.9826 679.405 100 675L100 125C100 118.369 102.634 112.011 107.322 107.322C112.011 102.634 118.37 99.9999 125 99.9999ZM550 400L150 168.25L150 631.75L550 400Z" fill="white"/>
<path d="M700 700L750 700L750 100L700 100L700 700Z" fill="white"/>
</svg>
