<svg width="800" height="800" viewBox="0 0 800 800" fill="none" xmlns="http://www.w3.org/2000/svg">
<g clip-path="url(#clip0_845_1061)">
<path d="M637.174 700C632.794 700.03 628.484 698.91 624.674 696.75L149.674 421.75C145.826 419.57 142.626 416.408 140.4 412.587C138.173 408.766 137 404.422 137 400C137 395.578 138.173 391.234 140.4 387.413C142.626 383.592 145.826 380.43 149.674 378.25L624.674 103.25C628.474 101.056 632.785 99.9006 637.174 99.9006C641.562 99.9006 645.873 101.056 649.674 103.25C653.489 105.453 656.654 108.624 658.849 112.444C661.044 116.263 662.191 120.595 662.174 125V675C662.174 681.63 659.54 687.989 654.851 692.678C650.163 697.366 643.804 700 637.174 700ZM212.174 400L612.174 631.75V168.25L212.174 400Z" fill="white"/>
</g>
<defs>
<clipPath id="clip0_845_1061">
<rect width="800" height="800" fill="white"/>
</clipPath>
</defs>
</svg>
