<svg width="800" height="800" viewBox="0 0 800 800" fill="none" xmlns="http://www.w3.org/2000/svg">
<g clip-path="url(#clip0_845_1053)">
<path d="M675 700C670.62 700.03 666.31 698.91 662.5 696.75L187.5 421.75C183.652 419.57 180.452 416.408 178.226 412.587C175.999 408.766 174.826 404.422 174.826 400C174.826 395.578 175.999 391.234 178.226 387.413C180.452 383.592 183.652 380.43 187.5 378.25L662.5 103.25C666.3 101.056 670.611 99.9006 675 99.9006C679.388 99.9006 683.699 101.056 687.5 103.25C691.315 105.453 694.48 108.624 696.675 112.444C698.871 116.263 700.017 120.595 700 125V675C700 681.63 697.366 687.989 692.678 692.678C687.989 697.366 681.63 700 675 700ZM250 400L650 631.75V168.25L250 400Z" fill="white"/>
<path d="M100 100H50V700H100V100Z" fill="white"/>
</g>
<defs>
<clipPath id="clip0_845_1053">
<rect width="800" height="800" fill="white"/>
</clipPath>
</defs>
</svg>
