<svg width="24" height="23" viewBox="0 0 24 23" fill="none" xmlns="http://www.w3.org/2000/svg">
<path d="M11.1585 2.41484C11.4252 1.7875 11.5585 1.47382 11.7442 1.37723C11.9055 1.2933 12.0949 1.2933 12.2561 1.37723C12.4418 1.47382 12.5752 1.7875 12.8419 2.41484L14.966 7.41176C15.0449 7.59722 15.0843 7.68995 15.1453 7.76096C15.1992 7.82379 15.2652 7.87405 15.3388 7.90845C15.4221 7.94734 15.5184 7.958 15.711 7.9793L20.8995 8.55354C21.5509 8.62563 21.8765 8.66167 22.0216 8.81699C22.1475 8.9519 22.206 9.14081 22.1797 9.3276C22.1495 9.5426 21.9063 9.77246 21.4197 10.2323L17.5439 13.8948C17.4002 14.0307 17.3282 14.0987 17.2827 14.1815C17.2423 14.2548 17.2171 14.3361 17.2087 14.4201C17.1991 14.5152 17.2192 14.6145 17.2594 14.8132L18.3419 20.1649C18.4779 20.8369 18.5458 21.1728 18.4498 21.3653C18.3662 21.5327 18.213 21.6494 18.0355 21.6809C17.8312 21.7172 17.5475 21.5457 16.9801 21.2025L12.4606 18.4691C12.2929 18.3676 12.209 18.317 12.1199 18.2971C12.041 18.2796 11.9594 18.2796 11.8805 18.2971C11.7913 18.317 11.7075 18.3676 11.5398 18.4691L7.02032 21.2025C6.45292 21.5457 6.16922 21.7172 5.96487 21.6809C5.78735 21.6494 5.6341 21.5327 5.55066 21.3653C5.4546 21.1728 5.52255 20.8369 5.65846 20.1649L6.74097 14.8132C6.78115 14.6145 6.80123 14.5152 6.7917 14.4201C6.78325 14.3361 6.75806 14.2548 6.71774 14.1815C6.67219 14.0987 6.60026 14.0307 6.45643 13.8948L2.58073 10.2323C2.09416 9.77246 1.85087 9.5426 1.82062 9.3276C1.79436 9.14081 1.85289 8.9519 1.97883 8.81699C2.12383 8.66167 2.44953 8.62563 3.10093 8.55354L8.2894 7.9793C8.48198 7.958 8.57825 7.94734 8.66151 7.90845C8.73517 7.87405 8.80113 7.82379 8.85511 7.76096C8.9161 7.68995 8.95552 7.59722 9.03437 7.41176L11.1585 2.41484Z" fill="#232B30"/>
<path fill-rule="evenodd" clip-rule="evenodd" d="M12.7789 0.19054C12.2882 -0.0635133 11.7119 -0.0635133 11.2211 0.19054L11.221 0.190624C10.7881 0.41477 10.5623 0.80857 10.4539 1.01136C10.3365 1.23081 10.2163 1.51228 10.0962 1.79357C10.0905 1.80693 10.0848 1.82029 10.0791 1.83365L7.97943 6.7488L2.85068 7.31364C2.83658 7.31519 2.82246 7.31675 2.80836 7.3183C2.51507 7.35054 2.22158 7.38281 1.98547 7.43141C1.76713 7.47636 1.33834 7.57873 1.00022 7.93912M12.779 0.190624L12.7789 0.19054L12.779 0.190624ZM12.779 0.190624C13.2119 0.414771 13.4377 0.808572 13.5462 1.01136C13.6635 1.2308 13.7837 1.51227 13.9038 1.79354C13.9095 1.80692 13.9152 1.8203 13.9209 1.83367L16.0206 6.74879L21.1917 7.31829C21.485 7.35054 21.7785 7.38281 22.0146 7.43142C22.233 7.47637 22.6617 7.57875 22.9998 7.93907L23 7.93928C23.3831 8.34777 23.5611 8.91961 23.4813 9.4849C23.4109 9.98407 23.1215 10.33 22.9702 10.5002C22.8067 10.6843 22.5875 10.8903 22.3686 11.0962L22.3367 11.1261L22.3366 11.1262L18.5055 14.7288L19.5844 20.0365C19.6457 20.3375 19.7069 20.6387 19.7356 20.888C19.7621 21.1185 19.8013 21.5757 19.5773 22.0227L19.5772 22.0228C19.3232 22.5294 18.857 22.8828 18.3169 22.9782L18.3166 22.9783C17.8403 23.0623 17.4358 22.8822 17.2339 22.7847C17.0153 22.6792 16.7596 22.5252 16.504 22.3713L16.4675 22.3494L16.4674 22.3493L12 19.6606L7.5326 22.3493L7.49617 22.3713C7.24054 22.5252 6.98477 22.6792 6.76623 22.7847C6.56425 22.8823 6.15982 23.0623 5.68345 22.9783L5.68316 22.9782C5.14335 22.8828 4.6769 22.5296 4.42284 22.0227C4.42277 22.0226 4.4227 22.0225 4.42263 22.0223C4.19877 21.5755 4.23799 21.1185 4.26448 20.888C4.29314 20.6387 4.35442 20.3375 4.41566 20.0365L4.4245 19.993L5.49455 14.7288L1.66347 11.1262L1.66344 11.1262C1.6528 11.1161 1.64215 11.1061 1.6315 11.0961C1.41253 10.8903 1.19342 10.6843 1.02989 10.5003C0.878608 10.3301 0.589322 9.98426 0.518777 9.4853L0.518762 9.4852C0.438862 8.91973 0.616921 8.34768 1.00022 7.93912M12 3.326L13.9413 7.87035C13.9458 7.88087 13.9509 7.89316 13.9566 7.907C14.012 8.03991 14.1271 8.31598 14.3216 8.54149C14.4861 8.73233 14.6871 8.88446 14.9108 8.98853L14.9111 8.98866C15.177 9.11224 15.4645 9.14106 15.6033 9.15498C15.6176 9.15642 15.6304 9.1577 15.6414 9.1589L15.6414 9.15891L20.3828 9.68109L16.841 13.0116L16.8408 13.0117C16.8327 13.0194 16.823 13.0283 16.8122 13.0383C16.7081 13.1344 16.4914 13.3343 16.346 13.5976C16.2237 13.8188 16.1468 14.0649 16.1211 14.3203C16.0907 14.6223 16.1532 14.9161 16.1834 15.0582C16.1865 15.0729 16.1893 15.0859 16.1916 15.0972L16.1916 15.0972L17.1809 19.9638L13.0509 17.4782M12 3.326L10.0589 7.87004C10.0544 7.88058 10.0493 7.89286 10.0435 7.90668C9.98796 8.04001 9.87283 8.31636 9.67807 8.542L9.67801 8.54207C9.51388 8.73219 9.31324 8.88438 9.08899 8.98861L9.08886 8.98867C8.82296 9.11224 8.53551 9.14107 8.39682 9.15498C8.38247 9.15642 8.36971 9.1577 8.35873 9.1589L8.35869 9.15891L3.6173 9.68109L7.15892 13.0115L7.15905 13.0116C7.16723 13.0193 7.1768 13.0281 7.18754 13.0381C7.29205 13.1345 7.50826 13.334 7.65377 13.597L7.65411 13.5976C7.7765 13.8191 7.85319 14.0651 7.8789 14.3198L7.87891 14.3199C7.90936 14.6219 7.84684 14.9161 7.81666 15.058C7.81353 15.0727 7.81075 15.0858 7.80846 15.0971L7.80844 15.0972L6.8192 19.9638L10.9491 17.4782L10.9492 17.4782C10.9588 17.4724 10.9698 17.4656 10.9822 17.458C11.1028 17.3839 11.3508 17.2315 11.635 17.1683L11.6367 17.1679C11.8762 17.115 12.1238 17.115 12.3634 17.1679L12.365 17.1683C12.6492 17.2315 12.8972 17.3839 13.0178 17.458C13.0302 17.4656 13.0412 17.4724 13.0508 17.4782" fill="white"/>
</svg>
