<svg width="200" height="200" viewBox="0 0 200 200" fill="none" xmlns="http://www.w3.org/2000/svg">
<path fill-rule="evenodd" clip-rule="evenodd" d="M165.625 180H34.3817C27.3178 180 22.1015 173.03 24.7658 166.62C37.1276 136.98 66.1693 120 99.9985 120C133.838 120 162.88 136.98 175.241 166.62C177.906 173.03 172.689 180 165.625 180ZM59.1667 59.9999C59.1667 37.9399 77.4899 19.9999 99.9985 19.9999C122.517 19.9999 140.83 37.9399 140.83 59.9999C140.83 82.0599 122.517 99.9999 99.9985 99.9999C77.4899 99.9999 59.1667 82.0599 59.1667 59.9999ZM199.557 176.36C192.136 142.77 168.923 117.98 138.37 106.73C154.56 93.9597 164.002 73.3094 160.532 50.6993C156.51 24.4693 134.236 3.47977 107.348 0.419769C70.2321 -3.81023 38.7507 24.4899 38.7507 59.9999C38.7507 78.8999 47.6929 95.7397 61.637 106.73C31.0743 117.98 7.87164 142.77 0.44024 176.36C-2.25466 188.57 7.78998 200 20.5397 200H179.457C192.217 200 202.262 188.57 199.557 176.36Z" fill="white"/>
</svg>
