<svg width="40" height="40" viewBox="0 0 40 40" fill="none" xmlns="http://www.w3.org/2000/svg">
<rect x="0.5" y="0.5" width="39" height="39" rx="19.5" fill="#232B30"/>
<rect x="0.5" y="0.5" width="39" height="39" rx="19.5" stroke="url(#paint0_linear_161_3444)"/>
<path fill-rule="evenodd" clip-rule="evenodd" d="M10 11C10 10.4477 10.4477 10 11 10H14C14.4936 10 14.9133 10.3601 14.9884 10.8479L15.1656 12H29C29.3138 12 29.6094 12.1473 29.7983 12.3978C29.9873 12.6483 30.0477 12.973 29.9615 13.2747L27.9615 20.2747C27.8389 20.704 27.4465 21 27 21H16.5502L16.8579 23H28C28.5523 23 29 23.4477 29 24C29 24.5523 28.5523 25 28 25H16C15.5064 25 15.0867 24.6399 15.0116 24.1521L14.4153 20.2762C14.3926 20.1969 14.3794 20.1136 14.3771 20.0275L13.3384 13.2763C13.3157 13.1969 13.3024 13.1135 13.3001 13.0274L13.1421 12H11C10.4477 12 10 11.5523 10 11ZM15.4733 14L16.2425 19H26.2457L27.6743 14H15.4733ZM14 28C14 26.8954 14.8954 26 16 26C17.1045 26 18 26.8954 18 28C18 29.1046 17.1045 30 16 30C14.8954 30 14 29.1046 14 28ZM25 28C25 26.8954 25.8954 26 27 26C28.1046 26 29 26.8954 29 28C29 29.1046 28.1046 30 27 30C25.8954 30 25 29.1046 25 28Z" fill="white"/>
<defs>
<linearGradient id="paint0_linear_161_3444" x1="40" y1="-35.5" x2="40" y2="33.5" gradientUnits="userSpaceOnUse">
<stop stop-color="#64C3FF"/>
<stop offset="1" stop-color="#64C3FF" stop-opacity="0"/>
</linearGradient>
</defs>
</svg>
