<svg width="20" height="20" viewBox="0 0 20 20" fill="none" xmlns="http://www.w3.org/2000/svg">
<path fill-rule="evenodd" clip-rule="evenodd" d="M15.3665 0L20 5.36326V5.64668C20 8.62036 18.0159 15.3798 10.3607 19.7921L10 20L9.63927 19.7921C1.98413 15.3798 0 8.62036 0 5.64668V5.36326L4.63352 1.42973e-06L5.09448 0.156929C5.55276 0.312945 6.48019 0.448718 7.49764 0.543185C8.49086 0.635402 9.47713 0.680654 10 0.680654C10.5229 0.680654 11.5091 0.635401 12.5024 0.543184C13.5198 0.448717 14.4472 0.312944 14.9055 0.156927L15.3665 0ZM12.6353 2.0362C11.6101 2.13138 10.5781 2.17983 10 2.17983C9.42195 2.17983 8.38987 2.13139 7.36474 2.03621C6.58312 1.96363 5.7466 1.85911 5.11155 1.71261L1.47455 5.92239C1.59469 8.50146 3.37983 14.2914 10 18.274C16.6202 14.2914 18.4053 8.50146 18.5255 5.92239L14.8885 1.71261C14.2534 1.85911 13.4169 1.96363 12.6353 2.0362ZM8.14255 3.39791H13.0703L14.6639 5.134L13.593 6.15935L12.4343 4.89709H9.28864L7.4246 12.5122L7.80458 12.8615H10.9804L11.9581 11.8629L12.996 12.923L11.5884 14.3606H7.24129L5.78641 13.0233L8.14255 3.39791Z" fill="url(#paint0_linear_156_851)"/>
<defs>
<linearGradient id="paint0_linear_156_851" x1="27.4312" y1="22.6061" x2="32.0682" y2="11.9531" gradientUnits="userSpaceOnUse">
<stop stop-color="#98F5FF"/>
<stop stop-color="#98F5FF"/>
<stop offset="0.211451" stop-color="#1186FF"/>
<stop offset="0.535" stop-color="#1186FF"/>
<stop offset="0.845" stop-color="#98F5FF"/>
<stop offset="1" stop-color="white"/>
</linearGradient>
</defs>
</svg>
