<svg width="97" height="18" viewBox="0 0 97 18" fill="none" xmlns="http://www.w3.org/2000/svg">
<ellipse cx="9.07564" cy="9.00002" rx="9.07564" ry="9.00002" fill="url(#paint0_linear_339_364)"/>
<path fill-rule="evenodd" clip-rule="evenodd" d="M8.62734 17.9893C8.77586 17.9964 8.92533 18 9.07564 18C9.21119 18 9.34604 17.9971 9.48014 17.9913C14.3048 17.7814 18.1513 13.8362 18.1513 9.00002C18.1513 5.98097 16.6523 3.30911 14.3521 1.67647C14.2425 1.5987 14.1311 1.52328 14.018 1.4503C13.8782 1.36013 13.7358 1.27368 13.5908 1.19109C12.3723 0.496719 10.9758 0.0747656 9.48592 0.00903249C9.34992 0.00303208 9.21314 0 9.07564 0C8.94012 0 8.80529 0.00294568 8.67122 0.00877599C3.98064 0.212751 0.214568 3.94743 0.00885205 8.59892C0.00297121 8.73189 0 8.86561 0 9.00002C0 9.16247 0.00433984 9.32391 0.0129108 9.48423C0.258735 14.0825 3.9851 17.7653 8.62734 17.9893ZM9.16407 17.1974C8.32187 15.1961 7.92484 13.4088 7.84744 11.826C7.63252 7.43092 9.8822 4.52779 12.1295 2.93608C12.6093 2.59621 13.0873 2.3176 13.5386 2.09824C13.5514 2.10638 13.5641 2.11456 13.5768 2.12277C15.8452 3.58608 17.3423 6.1199 17.3423 9.00002C17.3423 13.4983 13.6889 17.1503 9.16407 17.1974ZM12.6988 1.62929C11.8243 1.20564 10.863 0.930636 9.84788 0.837481C10.0194 1.07216 10.2385 1.28289 10.4853 1.46931C10.9353 1.80935 11.4445 2.0423 11.8241 2.16873C12.1178 1.9684 12.4109 1.78867 12.6988 1.62929ZM11.0656 2.73356C8.94492 4.45324 6.98301 7.29744 7.02481 11.3728C6.61428 11.3342 6.1243 11.3489 5.64694 11.479C5.05297 11.6409 4.46417 11.9882 4.09756 12.6343C3.36493 12.2377 2.47217 11.8122 1.94512 11.5702C1.87374 11.1863 1.73428 10.6802 1.5086 10.1886C1.33996 9.82114 1.11221 9.43785 0.809858 9.12134C0.809267 9.08097 0.808971 9.04053 0.808971 9.00002C0.808971 6.59955 1.84939 4.44005 3.50744 2.94079L2.98896 4.22047C2.75819 4.48076 2.37031 5.03871 2.27407 5.67932C2.07191 6.12065 1.65631 7.00901 1.4661 7.41435L1.39032 7.57584L1.81891 8.58042L3.037 7.50837C3.14045 7.55971 3.25515 7.61009 3.37115 7.65037C3.4872 7.69066 3.62152 7.72685 3.75663 7.7373C3.76535 7.73797 3.77434 7.73856 3.78357 7.73903C4.10993 8.34867 4.45423 8.90365 4.60317 9.13088L4.79565 9.42455L5.80184 8.95336V6.59556C5.90454 6.46144 6.02415 6.28527 6.12639 6.0939C6.2259 5.90766 6.332 5.66537 6.36317 5.41467C6.79476 5.03297 7.54015 4.33984 7.8873 4.01429L8.12471 3.79166L7.58165 2.90466L5.92335 3.35786C5.69743 3.18597 5.34712 3.08539 4.89911 3.10041C4.77879 2.88461 4.66667 2.71912 4.60861 2.64235L4.42261 2.39642L3.90916 2.60009C5.28044 1.51006 7.00958 0.844454 8.89401 0.80417C9.14501 1.34704 9.56081 1.7794 9.99499 2.10744C10.3444 2.37146 10.7202 2.57935 11.0656 2.73356ZM1.4802 12.2411C2.64653 14.9255 5.21755 16.8685 8.27514 17.1599C7.5494 15.3497 7.16948 13.6924 7.05891 12.1837C6.71179 12.1392 6.27304 12.1404 5.86134 12.2526C5.339 12.395 4.88255 12.706 4.66775 13.329L4.50792 13.7925L4.08121 13.5457C3.28292 13.0839 2.05851 12.5035 1.4802 12.2411ZM8.43677 12.2147C8.5034 12.0032 8.73027 11.8854 8.94349 11.9514C9.9034 12.2489 12.2571 13.12 14.0097 14.2409C14.1974 14.361 14.2514 14.6093 14.1303 14.7954C14.0093 14.9816 13.7589 15.0352 13.5712 14.9151C11.9058 13.85 9.62988 13.0046 8.70219 12.7172C8.48897 12.6511 8.37014 12.4261 8.43677 12.2147ZM8.69563 8.18573C8.77216 7.9776 9.00434 7.87041 9.21421 7.9463C9.98882 8.2264 11.258 8.73743 12.5621 9.36492C13.8601 9.98954 15.2206 10.7427 16.1589 11.5111C16.3311 11.6521 16.3555 11.905 16.2132 12.0758C16.071 12.2466 15.816 12.2707 15.6438 12.1296C14.7821 11.4239 13.4923 10.7042 12.2089 10.0867C10.9314 9.47195 9.68772 8.97142 8.93708 8.69999C8.7272 8.62409 8.61911 8.39385 8.69563 8.18573ZM11.0185 5.09782C11.0905 4.8881 11.3203 4.77594 11.5317 4.8473C12.1563 5.05806 13.158 5.45713 14.153 5.97566C15.1382 6.48907 16.1624 7.14267 16.7909 7.87521C16.9356 8.04394 16.915 8.29709 16.7449 8.44063C16.5747 8.58418 16.3195 8.56376 16.1747 8.39503C15.6504 7.78383 14.7406 7.18812 13.7767 6.6858C12.8226 6.18858 11.86 5.80548 11.2711 5.60677C11.0597 5.5354 10.9466 5.30754 11.0185 5.09782ZM4.99287 6.30906L5.08796 6.19708C5.1734 6.09646 5.30618 5.91556 5.41156 5.71832C5.52491 5.50615 5.56919 5.34358 5.56276 5.25631L5.54797 5.05592L5.70095 4.92418C5.94033 4.71803 6.37707 4.31816 6.7635 3.96039L5.55518 4.29062L5.42882 3.99526C5.41814 3.98687 5.39331 3.97015 5.34551 3.95216C5.24378 3.91389 5.04778 3.87624 4.71768 3.91989L4.42759 3.95825L4.30012 3.697C4.25713 3.6089 4.21316 3.52687 4.17147 3.45365L3.68317 4.65886L3.62904 4.71487C3.46576 4.88383 3.12527 5.35787 3.06884 5.83758L3.06154 5.89957L3.03561 5.95643C2.94728 6.15005 2.80631 6.454 2.66039 6.76722L2.94124 6.52003L3.19798 6.6797C3.30466 6.74604 3.47748 6.83731 3.63845 6.8932C3.71862 6.92102 3.7793 6.9342 3.81824 6.93739L4.15942 6.70671L4.36767 7.11383C4.57592 7.52097 4.80719 7.92288 4.99287 8.23106V6.30906ZM3.84143 6.93781C3.84147 6.93786 3.84047 6.93801 3.83831 6.93809C3.84031 6.9378 3.84139 6.93776 3.84143 6.93781Z" fill="white"/>
<path d="M30.4604 9.41981H33.9765L38.3767 15.7359H34.3985L30.4604 9.41981ZM26.9443 1.7887H30.3399V15.7359H26.9443V1.7887ZM29.0741 4.63791V1.7887H32.0678C33.2733 1.7887 34.2779 1.9813 35.0816 2.36651C35.8853 2.75172 36.4947 3.28968 36.91 3.9804C37.3252 4.65784 37.5328 5.44818 37.5328 6.35143C37.5328 7.24139 37.3252 8.03173 36.91 8.72245C36.4947 9.39989 35.8853 9.93121 35.0816 10.3164C34.2779 10.7016 33.2733 10.8942 32.0678 10.8942H29.0741V8.28411H31.8267C32.2821 8.28411 32.6706 8.2177 32.992 8.08487C33.3269 7.93875 33.5814 7.73286 33.7555 7.4672C33.9297 7.18826 34.0167 6.85618 34.0167 6.47097C34.0167 6.08576 33.9297 5.76033 33.7555 5.49467C33.5814 5.21573 33.3269 5.0032 32.992 4.85708C32.6706 4.71097 32.2821 4.63791 31.8267 4.63791H29.0741Z" fill="white"/>
<path d="M39.9531 1.7887H43.3487V12.8468H48.9945V15.7359H39.9531V1.7887Z" fill="white"/>
<path d="M54.5389 4.18689V2.01511H64.8461L57.7536 13.8503H64.3237V15.9623H53.916L60.9683 4.18689H54.5389Z" fill="white"/>
<path d="M65.2865 11.3797C65.2865 10.4366 65.5008 9.60638 65.9295 8.88909C66.3715 8.17181 66.9675 7.61392 67.7176 7.21543C68.4677 6.80365 69.3183 6.59777 70.2693 6.59777C71.2203 6.59777 72.0642 6.80365 72.8009 7.21543C73.551 7.61392 74.1471 8.17181 74.5891 8.88909C75.0311 9.60638 75.2521 10.4366 75.2521 11.3797C75.2521 12.3095 75.0311 13.1397 74.5891 13.8702C74.1471 14.5875 73.551 15.1521 72.8009 15.5638C72.0642 15.9623 71.2203 16.1616 70.2693 16.1616C69.3183 16.1616 68.4677 15.9623 67.7176 15.5638C66.9675 15.1521 66.3715 14.5875 65.9295 13.8702C65.5008 13.1397 65.2865 12.3095 65.2865 11.3797ZM67.5167 11.3797C67.5167 11.9508 67.6373 12.4556 67.8784 12.8939C68.1195 13.319 68.4476 13.6577 68.8629 13.9101C69.2781 14.1492 69.7469 14.2687 70.2693 14.2687C70.7783 14.2687 71.2404 14.1492 71.6557 13.9101C72.0843 13.6577 72.4192 13.319 72.6603 12.8939C72.9014 12.4556 73.0219 11.9508 73.0219 11.3797C73.0219 10.8085 72.9014 10.3037 72.6603 9.8654C72.4192 9.42706 72.0843 9.08834 71.6557 8.84924C71.2404 8.61015 70.7783 8.4906 70.2693 8.4906C69.7469 8.4906 69.2781 8.61015 68.8629 8.84924C68.4476 9.08834 68.1195 9.42706 67.8784 9.8654C67.6373 10.3037 67.5167 10.8085 67.5167 11.3797Z" fill="white"/>
<path d="M83.2583 10.3834C83.2583 9.706 83.1177 9.1946 82.8364 8.84924C82.5551 8.50389 82.1198 8.33121 81.5304 8.33121C81.1286 8.33121 80.7736 8.41755 80.4655 8.59023C80.1575 8.74962 79.9164 8.98872 79.7422 9.30751C79.5681 9.61302 79.481 9.97166 79.481 10.3834V15.9623H77.3111V6.79701H79.481V8.21166C79.7757 7.66705 80.1508 7.26192 80.6062 6.99626C81.075 6.7306 81.6309 6.59777 82.2738 6.59777C83.3186 6.59777 84.1156 6.91656 84.6648 7.55415C85.2139 8.17845 85.4885 9.04185 85.4885 10.1443V15.9623H83.2583V10.3834Z" fill="white"/>
<path d="M92.2781 16.1616C91.3404 16.1616 90.51 15.9623 89.7866 15.5638C89.0767 15.1653 88.5276 14.6075 88.1391 13.8902C87.7507 13.1729 87.5564 12.336 87.5564 11.3797C87.5564 10.41 87.7507 9.56653 88.1391 8.84924C88.5409 8.13196 89.1035 7.58071 89.8268 7.1955C90.5501 6.79701 91.4007 6.59777 92.3785 6.59777C93.3563 6.59777 94.1868 6.78373 94.8699 7.15565C95.553 7.52758 96.0754 8.06554 96.4371 8.76955C96.8121 9.46027 96.9997 10.2971 96.9997 11.28C96.9997 11.3863 96.993 11.4992 96.9796 11.6188C96.9796 11.7383 96.9729 11.8246 96.9595 11.8778H88.8423V10.4034H95.111L94.448 11.3199C94.4882 11.2402 94.5284 11.1339 94.5685 11.0011C94.6221 10.855 94.6489 10.7354 94.6489 10.6425C94.6489 10.151 94.5484 9.72593 94.3475 9.36728C94.16 9.00864 93.8921 8.7297 93.5439 8.53045C93.209 8.33121 92.8138 8.23158 92.3584 8.23158C91.8092 8.23158 91.3404 8.35113 90.952 8.59023C90.5635 8.82932 90.2689 9.17468 90.0679 9.6263C89.867 10.0779 89.7599 10.6358 89.7465 11.3C89.7465 11.9641 89.8469 12.5287 90.0478 12.9936C90.2488 13.4452 90.5434 13.7905 90.9319 14.0296C91.3337 14.2687 91.8159 14.3883 92.3785 14.3883C92.9679 14.3883 93.4836 14.2687 93.9256 14.0296C94.3676 13.7905 94.736 13.4253 95.0307 12.9338L96.8992 13.6909C96.417 14.5145 95.7942 15.1321 95.0307 15.5439C94.2672 15.9557 93.3496 16.1616 92.2781 16.1616Z" fill="white"/>
<defs>
<linearGradient id="paint0_linear_339_364" x1="4.17433" y1="4.11629" x2="13.9392" y2="14.2445" gradientUnits="userSpaceOnUse">
<stop stop-color="#A064FF"/>
<stop offset="1" stop-color="#64C3FF"/>
</linearGradient>
</defs>
</svg>
