<svg width="20" height="20" viewBox="0 0 20 20" fill="none" xmlns="http://www.w3.org/2000/svg">
<path d="M19.536 19.5367C19.2371 19.8335 18.833 20 18.4119 20C17.9907 20 17.5866 19.8335 17.2878 19.5367L12.4168 14.666C10.7638 15.7612 8.7628 16.2034 6.80213 15.9068C4.84145 15.6102 3.06087 14.5958 1.80584 13.0606C0.550805 11.5253 -0.0891886 9.57866 0.0100249 7.59823C0.109238 5.6178 0.940585 3.74482 2.34277 2.34268C3.74495 0.940551 5.618 0.109234 7.59851 0.0100245C9.57901 -0.0891853 11.5258 0.550785 13.0611 1.80577C14.5964 3.06076 15.6107 4.84128 15.9074 6.80188C16.204 8.76249 15.7618 10.7634 14.6665 12.4164L19.536 17.2871C19.8332 17.5861 20 17.9904 20 18.4119C20 18.8334 19.8332 19.2378 19.536 19.5367ZM10.4096 13.9371C11.8939 13.3373 13.1015 12.206 13.7968 10.764C14.4921 9.32201 14.6254 7.67272 14.1705 6.13783C13.7156 4.60294 12.7052 3.29255 11.3364 2.46224C9.96768 1.63194 8.33869 1.34128 6.76721 1.64696C5.19574 1.95265 3.7945 2.83275 2.83681 4.11559C1.87912 5.39844 1.43368 6.99202 1.58736 8.5855C1.74105 10.179 2.48284 11.6581 3.66805 12.7343C4.85325 13.8104 6.39687 14.4065 7.9978 14.4063C8.82407 14.4076 9.64415 14.2482 10.4096 13.9371Z" fill="white"/>
</svg>
