<svg width="40" height="40" viewBox="0 0 40 40" fill="none" xmlns="http://www.w3.org/2000/svg">
<rect x="0.5" y="0.5" width="39" height="39" rx="19.5" fill="#232B30"/>
<rect x="0.5" y="0.5" width="39" height="39" rx="19.5" stroke="url(#paint0_linear_161_3425)"/>
<path fill-rule="evenodd" clip-rule="evenodd" d="M27.8751 29.6H12.1258C11.2781 29.6 10.6522 28.7636 10.9719 27.9944C12.4553 24.4376 15.9403 22.4 19.9998 22.4C24.0605 22.4 27.5455 24.4376 29.029 27.9944C29.3487 28.7636 28.7227 29.6 27.8751 29.6ZM15.1 15.2C15.1 12.5528 17.2988 10.4 19.9998 10.4C22.7021 10.4 24.8996 12.5528 24.8996 15.2C24.8996 17.8472 22.7021 20 19.9998 20C17.2988 20 15.1 17.8472 15.1 15.2ZM31.9468 29.1632C31.0563 25.1324 28.2707 22.1576 24.6044 20.8076C26.5472 19.2752 27.6803 16.7971 27.2638 14.0839C26.7812 10.9363 24.1083 8.41757 20.8818 8.05037C16.4279 7.54277 12.6501 10.9388 12.6501 15.2C12.6501 17.468 13.7231 19.4888 15.3964 20.8076C11.7289 22.1576 8.9446 25.1324 8.05283 29.1632C7.72944 30.6284 8.9348 32 10.4648 32H29.5349C31.0661 32 32.2714 30.6284 31.9468 29.1632Z" fill="white"/>
<defs>
<linearGradient id="paint0_linear_161_3425" x1="40" y1="-35.5" x2="40" y2="33.5" gradientUnits="userSpaceOnUse">
<stop stop-color="#64C3FF"/>
<stop offset="1" stop-color="#64C3FF" stop-opacity="0"/>
</linearGradient>
</defs>
</svg>
